<svg width="20" height="10" viewBox="0 0 20 10" fill="none" xmlns="http://www.w3.org/2000/svg">
<path d="M10.6231 9.76383L19.7623 1.27781C19.9149 1.13622 20 0.948103 20 0.752481C20 0.556858 19.9149 0.368743 19.7623 0.22715L19.752 0.218013C19.678 0.149133 19.589 0.094286 19.4903 0.0568066C19.3916 0.0193272 19.2854 0 19.178 0C19.0706 0 18.9643 0.0193272 18.8657 0.0568066C18.767 0.094286 18.678 0.149133 18.604 0.218013L9.99828 8.20915L1.39601 0.218013C1.32205 0.149133 1.23302 0.094286 1.13434 0.0568066C1.03566 0.0193272 0.929398 0 0.82201 0C0.714622 0 0.608358 0.0193272 0.50968 0.0568066C0.411001 0.094286 0.321974 0.149133 0.248011 0.218013L0.237682 0.22715C0.0851116 0.368743 0 0.556858 0 0.752481C0 0.948103 0.0851116 1.13622 0.237682 1.27781L9.37695 9.76383C9.45732 9.83846 9.55398 9.89787 9.66108 9.93847C9.76818 9.97907 9.88348 10 10 10C10.1165 10 10.2318 9.97907 10.3389 9.93847C10.446 9.89787 10.5427 9.83846 10.6231 9.76383Z" fill="#333C4E"/>
</svg>
