<svg width="24" height="24" viewBox="0 0 24 24" fill="none" xmlns="http://www.w3.org/2000/svg">
<path d="M22.5 7.5V3.62109C22.5 3.42407 22.4611 3.22897 22.3857 3.04696C22.3102 2.86495 22.1997 2.69959 22.0603 2.56031L19.9392 0.439219C19.658 0.158044 19.2766 6.00764e-05 18.8789 0L7.5 0C7.10218 0 6.72064 0.158035 6.43934 0.43934C6.15804 0.720644 6 1.10218 6 1.5V22.5C6 22.8978 6.15804 23.2794 6.43934 23.5607C6.72064 23.842 7.10218 24 7.5 24H22.5C22.8978 24 23.2794 23.842 23.5607 23.5607C23.842 23.2794 24 22.8978 24 22.5V9C24 8.60218 23.842 8.22064 23.5607 7.93934C23.2794 7.65804 22.8978 7.5 22.5 7.5ZM13.5 20.25C13.5 20.4489 13.421 20.6397 13.2803 20.7803C13.1397 20.921 12.9489 21 12.75 21H11.25C11.0511 21 10.8603 20.921 10.7197 20.7803C10.579 20.6397 10.5 20.4489 10.5 20.25V18.75C10.5 18.5511 10.579 18.3603 10.7197 18.2197C10.8603 18.079 11.0511 18 11.25 18H12.75C12.9489 18 13.1397 18.079 13.2803 18.2197C13.421 18.3603 13.5 18.5511 13.5 18.75V20.25ZM13.5 14.25C13.5 14.4489 13.421 14.6397 13.2803 14.7803C13.1397 14.921 12.9489 15 12.75 15H11.25C11.0511 15 10.8603 14.921 10.7197 14.7803C10.579 14.6397 10.5 14.4489 10.5 14.25V12.75C10.5 12.5511 10.579 12.3603 10.7197 12.2197C10.8603 12.079 11.0511 12 11.25 12H12.75C12.9489 12 13.1397 12.079 13.2803 12.2197C13.421 12.3603 13.5 12.5511 13.5 12.75V14.25ZM19.5 20.25C19.5 20.4489 19.421 20.6397 19.2803 20.7803C19.1397 20.921 18.9489 21 18.75 21H17.25C17.0511 21 16.8603 20.921 16.7197 20.7803C16.579 20.6397 16.5 20.4489 16.5 20.25V18.75C16.5 18.5511 16.579 18.3603 16.7197 18.2197C16.8603 18.079 17.0511 18 17.25 18H18.75C18.9489 18 19.1397 18.079 19.2803 18.2197C19.421 18.3603 19.5 18.5511 19.5 18.75V20.25ZM19.5 14.25C19.5 14.4489 19.421 14.6397 19.2803 14.7803C19.1397 14.921 18.9489 15 18.75 15H17.25C17.0511 15 16.8603 14.921 16.7197 14.7803C16.579 14.6397 16.5 14.4489 16.5 14.25V12.75C16.5 12.5511 16.579 12.3603 16.7197 12.2197C16.8603 12.079 17.0511 12 17.25 12H18.75C18.9489 12 19.1397 12.079 19.2803 12.2197C19.421 12.3603 19.5 12.5511 19.5 12.75V14.25ZM19.5 9H9V3H16.5V5.25C16.5 5.44891 16.579 5.63968 16.7197 5.78033C16.8603 5.92098 17.0511 6 17.25 6H19.5V9ZM3 6H1.5C1.10218 6 0.720644 6.15804 0.43934 6.43934C0.158035 6.72064 0 7.10218 0 7.5L0 22.5C0 22.8978 0.158035 23.2794 0.43934 23.5607C0.720644 23.842 1.10218 24 1.5 24H3C3.39782 24 3.77936 23.842 4.06066 23.5607C4.34196 23.2794 4.5 22.8978 4.5 22.5V7.5C4.5 7.10218 4.34196 6.72064 4.06066 6.43934C3.77936 6.15804 3.39782 6 3 6Z" fill="white"/>
</svg>
