<svg width="14" height="19" viewBox="0 0 14 19" fill="none" xmlns="http://www.w3.org/2000/svg">
<path d="M7 18.0035C5.73694 16.9261 4.56619 15.745 3.5 14.4725C1.9 12.5615 8.78894e-07 9.71551 8.78894e-07 7.00351C-0.00069302 5.61847 0.409509 4.26436 1.17869 3.11254C1.94788 1.96072 3.04147 1.06297 4.32107 0.532908C5.60067 0.00284672 7.00875 -0.1357 8.36712 0.134802C9.72548 0.405303 10.9731 1.07269 11.952 2.05251C12.6038 2.70137 13.1203 3.47305 13.4719 4.32288C13.8234 5.17272 14.0029 6.08384 14 7.00351C14 9.71551 12.1 12.5615 10.5 14.4725C9.4338 15.745 8.26306 16.9261 7 18.0035ZM7 4.00351C6.20435 4.00351 5.44129 4.31958 4.87868 4.88219C4.31607 5.4448 4 6.20786 4 7.00351C4 7.79916 4.31607 8.56222 4.87868 9.12483C5.44129 9.68744 6.20435 10.0035 7 10.0035C7.79565 10.0035 8.55871 9.68744 9.12132 9.12483C9.68393 8.56222 10 7.79916 10 7.00351C10 6.20786 9.68393 5.4448 9.12132 4.88219C8.55871 4.31958 7.79565 4.00351 7 4.00351Z" fill="#3AB0BF"/>
</svg>
