<svg width="24" height="20" viewBox="0 0 24 20" fill="none" xmlns="http://www.w3.org/2000/svg">
<path d="M24 5.0595V15.75C24 16.7446 23.6049 17.6984 22.9016 18.4016C22.1984 19.1049 21.2446 19.5 20.25 19.5H3.75C2.75544 19.5 1.80161 19.1049 1.09835 18.4016C0.395088 17.6984 0 16.7446 0 15.75V5.0595L11.619 11.8965C11.7344 11.9646 11.866 12.0005 12 12.0005C12.134 12.0005 12.2656 11.9646 12.381 11.8965L24 5.0595ZM20.25 4.6429e-08C21.1727 -0.000145074 22.0631 0.33991 22.7508 0.95511C23.4385 1.57031 23.8753 2.41746 23.9775 3.3345L12 10.38L0.0225002 3.3345C0.124737 2.41746 0.561486 1.57031 1.24919 0.95511C1.9369 0.33991 2.82728 -0.000145074 3.75 4.6429e-08H20.25Z" fill="white"/>
</svg>
