<svg width="10" height="18" viewBox="0 0 10 18" fill="none" xmlns="http://www.w3.org/2000/svg">
<path d="M0.2226 0.211819C0.0798931 0.350299 0 0.536197 0 0.729774C0 0.923352 0.0798931 1.10925 0.2226 1.24773L8.19543 9L0.2226 16.7507C0.0798931 16.8892 0 17.0751 0 17.2687C0 17.4623 0.0798931 17.6482 0.2226 17.7866C0.291965 17.8542 0.3749 17.9078 0.466508 17.9445C0.558117 17.9811 0.656542 18 0.755976 18C0.85541 18 0.953836 17.9811 1.04544 17.9445C1.13705 17.9078 1.21999 17.8542 1.28935 17.7866L9.76775 9.54122C9.91666 9.39642 10 9.20221 10 9C10 8.79779 9.91666 8.60358 9.76775 8.45878L1.28935 0.21337C1.21999 0.145844 1.13705 0.0921741 1.04544 0.0555273C0.953836 0.0188806 0.85541 0 0.755976 0C0.656542 0 0.558117 0.0188806 0.466508 0.0555273C0.3749 0.0921741 0.291965 0.145844 0.2226 0.21337V0.211819Z" fill="#333C4E"/>
</svg>
