<svg width="18" height="18" viewBox="0 0 18 18" fill="none" xmlns="http://www.w3.org/2000/svg">
<path d="M6.75 2.25H13.6934L14.625 3.18199V5.625H16.875V2.71582C16.875 2.41755 16.7563 2.13152 16.5454 1.92059L14.9546 0.329766C14.7445 0.118652 14.4562 0 14.1609 0H5.625C5.00273 0 4.5 0.503789 4.5 1.125V5.625H6.75V2.25ZM2.25 4.5H1.125C0.505547 4.5 0 5.00625 0 5.625V16.875C0 17.4945 0.505547 18 1.125 18H2.25C2.86945 18 3.375 17.4945 3.375 16.875V5.625C3.375 5.00625 2.8698 4.5 2.25 4.5ZM16.875 6.75H4.5V16.875C4.5 17.4937 5.00625 18 5.625 18H16.875C17.4937 18 18 17.4937 18 16.875V7.875C18 7.25625 17.4937 6.75 16.875 6.75ZM10.125 15.1875C10.125 15.4995 9.87451 15.75 9.5625 15.75H8.4375C8.12461 15.75 7.875 15.5004 7.875 15.1875V14.0625C7.875 13.7496 8.12461 13.5 8.4375 13.5H9.5625C9.87451 13.5 10.125 13.7505 10.125 14.0625V15.1875ZM10.125 10.6875C10.125 10.9995 9.87451 11.25 9.5625 11.25H8.4375C8.12461 11.25 7.875 11.0004 7.875 10.6875V9.5625C7.875 9.24961 8.12461 9 8.4375 9H9.5625C9.87539 9 10.125 9.24961 10.125 9.5625V10.6875ZM14.625 15.1875C14.625 15.4995 14.3745 15.75 14.0625 15.75H12.9375C12.6255 15.75 12.375 15.4995 12.375 15.1875V14.0625C12.375 13.7505 12.6255 13.5 12.9375 13.5H14.0625C14.3745 13.5 14.625 13.7505 14.625 14.0625V15.1875ZM14.625 10.6875C14.625 10.9995 14.3745 11.25 14.0625 11.25H12.9375C12.6246 11.25 12.375 11.0004 12.375 10.6875V9.5625C12.375 9.24961 12.6246 9 12.9375 9H14.0625C14.3754 9 14.625 9.24961 14.625 9.5625V10.6875Z" fill="#3AB0BF"/>
</svg>
